<mxfile host="app.diagrams.net" modified="2024-04-01T13:24:12.521Z" agent="Mozilla/5.0 (Macintosh; Intel Mac OS X 10_15_7) AppleWebKit/605.1.15 (KHTML, like Gecko) Version/16.6 Safari/605.1.15" version="24.0.5" etag="fPO7zOu53GUHbWsM4OnT" type="github">
  <diagram name="第 1 页" id="Q-Ag9m_etdxxbcrkzomp">
    <mxGraphModel>
      <root>
        <mxCell id="0" />
        <mxCell id="1" parent="0" />
      </root>
    </mxGraphModel>
  </diagram>
</mxfile>
